<?xml version="1.0" standalone="no"?>
<!DOCTYPE svg PUBLIC "-//W3C//DTD SVG 20010904//EN"
 "http://www.w3.org/TR/2001/REC-SVG-20010904/DTD/svg10.dtd">
<svg version="1.0" xmlns="http://www.w3.org/2000/svg"
 width="461.000000pt" height="461.000000pt" viewBox="0 0 461.000000 461.000000"
 preserveAspectRatio="xMidYMid meet">
<metadata>
Created by potrace 1.11, written by Peter Selinger 2001-2013
</metadata>
<g transform="translate(0.000000,461.000000) scale(0.100000,-0.100000)"
fill="#000000" stroke="none">
<path d="M2244 4581 c3 -5 -1 -12 -10 -15 -8 -3 -13 -2 -10 3 5 7 -76 8 -94 1
-15 -6 -36 -4 -47 4 -8 5 -13 5 -13 -1 0 -5 -10 -9 -22 -8 -13 1 -31 -2 -40
-6 -11 -6 -19 -5 -24 2 -5 8 -10 6 -16 -5 -5 -9 -13 -14 -18 -11 -5 3 -18 1
-29 -5 -11 -5 -22 -6 -25 -2 -3 4 -21 6 -40 4 -22 -3 -33 -8 -29 -15 4 -6 1
-7 -8 -2 -21 14 -48 13 -42 0 2 -7 -5 -12 -19 -12 -42 -1 -49 -3 -42 -14 5 -8
1 -8 -14 0 -15 8 -23 8 -28 -1 -5 -7 -3 -8 6 -3 9 5 11 4 6 -3 -4 -7 -17 -11
-29 -11 -39 1 -60 -7 -67 -26 -5 -14 -8 -16 -15 -5 -6 9 -11 7 -22 -11 -11
-19 -13 -20 -9 -4 5 15 0 13 -21 -10 -15 -16 -24 -22 -20 -12 3 9 2 17 -3 17
-5 0 -12 -9 -15 -20 -4 -11 -11 -17 -17 -14 -6 4 -17 -1 -23 -10 -7 -9 -23
-19 -36 -21 -13 -3 -29 -12 -36 -21 -7 -9 -19 -14 -27 -11 -9 4 -15 3 -15 -1
3 -19 -2 -33 -10 -28 -5 3 -12 -1 -15 -10 -3 -8 -11 -12 -17 -8 -8 4 -9 3 -5
-4 4 -7 2 -12 -4 -12 -6 0 -8 -5 -4 -12 5 -8 0 -7 -11 2 -10 8 -16 10 -12 4 3
-6 -1 -20 -9 -30 -9 -10 -13 -12 -9 -4 4 8 0 6 -9 -4 -8 -10 -13 -23 -10 -27
5 -8 -9 -13 -28 -10 -4 0 -5 -9 -3 -20 3 -15 0 -19 -10 -15 -8 3 -17 0 -21 -6
-4 -6 -3 -8 4 -4 6 3 13 2 17 -4 6 -9 -17 -15 -40 -10 -5 1 -7 -2 -3 -5 4 -4
3 -16 -3 -27 -8 -15 -13 -17 -24 -8 -11 10 -13 8 -10 -9 3 -14 0 -18 -11 -14
-8 3 -14 2 -13 -3 3 -20 -2 -35 -10 -30 -5 3 -15 -2 -22 -11 -12 -14 -12 -16
1 -9 8 4 5 -1 -8 -11 -18 -15 -20 -21 -10 -31 11 -11 9 -12 -6 -6 -13 5 -17 4
-13 -3 4 -6 1 -18 -7 -26 -8 -8 -12 -17 -9 -21 3 -3 0 -12 -7 -21 -7 -8 -9
-22 -6 -31 5 -14 4 -15 -9 -4 -13 11 -15 8 -15 -15 0 -16 -8 -38 -17 -49 -17
-20 -17 -20 0 -7 15 12 17 12 11 -3 -3 -9 -10 -16 -15 -16 -4 0 -5 -7 -2 -17
4 -9 2 -14 -3 -11 -5 3 -10 -15 -12 -40 -1 -25 -8 -52 -15 -60 -9 -12 -9 -16
1 -19 6 -3 12 -9 12 -14 0 -6 -5 -7 -12 -3 -8 5 -9 2 -5 -9 3 -10 3 -17 -1
-17 -9 0 -7 -64 3 -81 5 -8 4 -10 -3 -5 -15 9 -15 1 -1 -26 8 -15 8 -19 0 -14
-14 9 -14 0 0 -26 8 -15 8 -19 0 -14 -6 4 -11 3 -11 -3 0 -5 5 -13 10 -16 6
-4 7 -12 3 -18 -10 -15 -10 -68 0 -84 5 -7 5 -13 0 -13 -9 0 -8 -83 1 -106 3
-8 0 -14 -6 -14 -6 0 -5 -6 3 -17 12 -14 12 -16 -1 -9 -8 4 -6 0 4 -8 18 -15
15 -21 -8 -17 -5 1 -5 -4 1 -11 13 -18 25 -50 15 -44 -4 2 -9 -4 -9 -15 -1
-10 5 -19 12 -19 9 0 12 -6 9 -15 -4 -9 0 -15 7 -15 9 0 10 -3 4 -8 -13 -9
-18 -35 -5 -27 14 9 13 -8 -2 -24 -10 -11 -10 -13 0 -7 7 5 12 1 12 -9 0 -9 4
-13 10 -10 5 3 7 0 5 -7 -3 -7 -15 -19 -26 -26 -17 -11 -20 -11 -14 0 3 7 0 5
-8 -4 -8 -10 -19 -18 -26 -18 -6 0 -11 -4 -11 -10 0 -5 8 -7 18 -4 9 2 7 -1
-6 -8 -16 -8 -22 -18 -18 -30 4 -16 2 -17 -10 -7 -12 10 -13 9 -7 -7 3 -10 11
-23 17 -27 7 -6 4 -7 -6 -3 -10 3 -20 1 -23 -5 -4 -5 -1 -8 5 -7 15 4 22 -29
9 -38 -15 -9 -10 -34 8 -34 15 0 14 -2 -3 -15 -14 -11 -15 -14 -2 -9 13 4 16
-1 14 -25 -1 -17 0 -31 3 -31 3 0 7 -11 7 -25 1 -15 -2 -22 -9 -18 -6 3 -7 1
-3 -6 4 -6 11 -9 16 -6 5 3 11 1 15 -5 3 -5 -1 -10 -9 -10 -9 0 -16 -5 -16
-10 0 -6 3 -9 8 -9 20 3 23 -3 11 -18 -10 -11 -10 -14 -1 -9 9 5 11 -3 9 -33
-3 -39 6 -55 17 -28 2 6 4 3 3 -8 -2 -11 -6 -26 -10 -32 -5 -8 -4 -13 2 -13 6
0 11 -7 11 -15 0 -8 6 -15 13 -15 8 0 7 -4 -3 -10 -13 -9 -13 -11 0 -20 8 -5
12 -10 7 -10 -4 0 0 -11 9 -25 13 -20 14 -25 3 -26 -8 0 -5 -4 6 -9 12 -5 14
-9 6 -9 -11 -1 -8 -7 8 -22 12 -12 20 -28 17 -36 -3 -8 -1 -11 4 -8 6 3 10 1
10 -4 0 -6 6 -11 14 -11 8 0 16 -7 20 -15 3 -8 11 -15 18 -15 9 0 8 3 -2 10
-9 6 -10 10 -3 10 6 0 15 -5 19 -11 5 -8 9 -8 14 1 6 9 11 6 20 -10 11 -20 10
-22 -4 -17 -8 3 -18 2 -21 -3 -4 -7 -34 -7 -42 0 -9 7 -29 4 -35 -5 -5 -6 -8
-6 -8 3 0 14 -36 16 -45 2 -3 -5 -12 -10 -18 -10 -7 0 -7 4 2 9 10 7 0 9 -32
8 -26 0 -47 -6 -47 -12 0 -5 -4 -4 -9 4 -5 7 -15 11 -22 9 -8 -3 -22 -1 -31 3
-12 7 -20 4 -27 -8 -6 -10 -11 -13 -11 -7 0 6 -17 11 -37 12 -28 1 -34 -1 -23
-8 8 -5 10 -10 4 -10 -6 0 -14 3 -18 7 -11 11 -36 12 -36 1 0 -6 -7 -5 -16 2
-12 11 -15 11 -12 0 2 -8 -2 -14 -9 -15 -7 0 -25 -18 -42 -40 -21 -29 -27 -43
-19 -52 6 -8 6 -13 1 -13 -5 0 -7 -14 -5 -31 4 -25 2 -30 -9 -24 -11 7 -12 6
-3 -6 7 -8 11 -34 10 -59 -1 -25 2 -50 6 -57 5 -6 5 -14 -2 -18 -7 -4 -7 -13
1 -27 8 -15 8 -19 0 -14 -15 10 -14 -7 1 -22 8 -8 8 -12 1 -12 -7 0 -8 -14 -3
-40 5 -27 4 -40 -4 -41 -6 0 -2 -4 9 -9 19 -8 19 -9 1 -9 -15 -1 -17 -4 -9
-12 6 -6 9 -18 6 -27 -4 -10 -2 -13 5 -8 9 5 9 1 2 -18 -7 -18 -6 -26 1 -26 8
0 7 -5 -1 -15 -9 -10 -9 -15 -1 -15 6 0 11 -5 11 -11 0 -5 -4 -8 -8 -5 -5 3
-9 -1 -9 -9 0 -8 4 -12 9 -9 4 3 8 1 8 -5 0 -5 -5 -13 -10 -16 -6 -3 -10 -12
-10 -18 0 -7 4 -6 10 3 7 11 10 7 10 -17 0 -17 5 -44 10 -60 10 -27 10 -27 -6
-8 -17 21 -17 17 3 -32 5 -12 3 -14 -8 -9 -8 4 -6 1 4 -7 14 -11 15 -16 5 -20
-10 -4 -10 -8 2 -16 13 -10 13 -11 0 -11 -13 0 -13 -1 0 -10 12 -8 12 -10 1
-10 -11 0 -11 -3 0 -17 8 -9 9 -14 3 -10 -6 4 -10 -2 -8 -16 1 -12 3 -23 4
-24 2 -2 3 -6 4 -10 1 -5 5 -13 9 -20 4 -6 3 -14 -3 -18 -7 -4 -7 -12 0 -25 6
-12 7 -28 1 -43 -7 -18 -5 -28 6 -40 15 -15 14 -16 -8 -11 -21 5 -22 4 -6 -6
14 -9 16 -15 6 -26 -10 -12 -9 -13 4 -9 8 4 18 1 23 -6 4 -8 3 -10 -4 -5 -7 4
-12 1 -12 -9 0 -10 -5 -13 -12 -9 -6 4 -8 3 -5 -3 4 -6 -5 -21 -18 -33 -14
-13 -25 -30 -25 -37 0 -8 -5 -11 -12 -7 -8 5 -9 2 -5 -9 6 -16 -9 -23 -37 -18
-5 1 -4 -4 3 -13 14 -17 -2 -32 -21 -20 -8 5 -8 2 1 -10 12 -15 12 -17 0 -14
-8 2 -13 -3 -12 -9 2 -7 -4 -13 -12 -13 -9 0 -12 -6 -8 -17 4 -10 2 -14 -4
-10 -6 4 -14 0 -17 -9 -3 -8 -11 -12 -17 -8 -8 4 -9 3 -5 -5 6 -9 11 -9 23 1
15 12 15 11 2 -10 -8 -12 -17 -22 -22 -22 -4 0 -5 -5 -1 -12 5 -8 2 -9 -10 -5
-14 5 -15 3 -6 -13 9 -16 8 -18 -6 -13 -11 4 -15 2 -11 -4 10 -16 -3 -44 -17
-36 -6 4 -5 -1 3 -10 11 -14 11 -18 -3 -23 -10 -4 -15 -12 -12 -19 3 -8 -2
-16 -10 -19 -8 -3 -14 -13 -14 -21 0 -10 5 -14 13 -10 6 4 5 1 -4 -7 -9 -7
-15 -21 -13 -30 1 -10 -3 -21 -8 -25 -7 -3 -8 -1 -4 5 5 8 1 10 -9 5 -13 -4
-14 -8 -4 -14 10 -6 10 -11 1 -21 -9 -11 -9 -18 1 -28 9 -10 9 -11 0 -6 -9 5
-13 -1 -13 -20 0 -22 -3 -24 -14 -15 -12 10 -13 8 -9 -8 3 -12 10 -18 17 -15
6 3 4 -1 -5 -8 -12 -10 -14 -19 -7 -37 7 -21 6 -22 -7 -11 -9 8 -15 9 -14 4 1
-5 0 -11 -1 -14 -7 -18 -7 -39 0 -35 12 8 6 -21 -8 -38 -10 -12 -10 -16 0 -20
10 -4 10 -6 1 -6 -7 -1 -13 -9 -13 -19 0 -10 -3 -22 -7 -26 -12 -11 -13 -46
-2 -46 5 0 7 -5 4 -10 -4 -7 689 -10 2072 -10 1345 0 2073 4 2063 10 -10 6
-11 10 -2 10 6 0 12 5 12 11 0 5 -5 7 -12 3 -7 -5 -8 -3 -2 7 12 20 14 40 3
33 -5 -3 -6 -11 -3 -17 4 -7 3 -8 -2 -4 -14 13 -11 41 6 55 8 7 11 12 5 11
-25 -3 -40 1 -28 9 10 6 9 14 -2 35 -10 19 -10 25 -2 20 9 -5 9 -3 0 9 -7 8
-9 19 -5 23 4 5 1 4 -7 0 -11 -6 -13 -4 -8 8 3 10 3 17 -2 17 -5 0 -7 14 -5
31 3 27 2 30 -11 19 -13 -11 -14 -10 -9 4 3 9 0 24 -7 33 -8 9 -9 14 -3 10 6
-3 11 0 11 8 0 8 -5 11 -10 8 -6 -4 -8 5 -5 21 4 22 3 24 -9 14 -12 -10 -14
-9 -11 8 1 12 -4 29 -12 39 -8 11 -10 16 -4 12 6 -3 11 1 11 9 0 8 -6 13 -13
10 -8 -3 -11 2 -9 15 3 13 -2 19 -13 19 -14 0 -15 2 -2 10 12 8 12 10 -2 15
-9 4 -19 14 -22 22 -6 13 -4 14 11 3 10 -7 5 0 -12 16 -17 16 -22 25 -12 21 9
-3 17 -2 17 3 0 6 -7 10 -16 10 -8 0 -12 5 -9 10 3 6 1 10 -6 10 -8 0 -8 4 1
15 11 13 10 14 -5 9 -13 -5 -16 -4 -11 4 4 7 2 12 -4 12 -7 0 -9 7 -6 16 4 11
-1 18 -14 21 -15 4 -19 11 -14 25 3 11 2 18 -2 16 -11 -6 -45 28 -37 36 4 3 1
6 -6 6 -7 0 -9 5 -6 10 3 6 1 10 -5 10 -17 0 -40 26 -40 47 0 15 -2 16 -10 3
-7 -11 -10 -2 -10 31 0 25 3 49 7 53 19 19 10 63 -11 49 -7 -4 -4 -1 6 9 21
19 24 33 6 22 -10 -6 -10 -4 -2 7 6 8 10 24 8 37 -3 15 0 21 7 16 8 -5 8 -1 0
14 -8 15 -8 22 2 25 7 3 4 6 -6 6 -16 1 -17 3 -3 16 11 11 12 23 6 45 -5 18
-5 30 1 30 5 0 9 5 9 11 0 5 -5 7 -11 3 -8 -4 -8 -1 -2 12 5 11 8 30 7 44 -1
14 2 33 7 42 6 11 5 18 -4 21 -8 3 -6 10 7 26 16 17 17 21 4 16 -17 -7 -20 17
-3 32 4 4 5 2 1 -4 -4 -7 -2 -13 3 -13 16 0 13 11 -6 32 -16 18 -16 18 1 12
16 -6 17 -5 6 16 -11 20 -10 22 5 16 15 -6 16 -4 4 10 -14 17 -21 56 -8 48 4
-2 10 0 14 6 3 5 2 10 -3 10 -13 0 -11 30 2 30 6 0 2 7 -8 15 -19 14 -19 15
-2 15 15 0 16 3 6 15 -9 10 -9 15 -1 15 13 0 10 22 -4 32 -6 5 -6 8 2 8 8 0
11 14 10 40 -2 30 1 40 12 40 11 0 10 4 -5 16 -10 8 -14 13 -7 10 6 -4 14 -2
18 4 3 5 -2 10 -12 11 -10 0 -13 3 -7 5 6 2 8 19 6 36 -3 22 -1 29 7 23 14 -8
-7 34 -24 48 -6 5 -2 6 9 3 16 -6 17 -4 6 9 -7 8 -9 15 -5 15 4 0 1 8 -6 17
-8 9 -9 14 -2 10 7 -5 10 -1 8 10 -2 10 -4 22 -4 26 -1 5 -6 5 -12 1 -7 -4
-10 -1 -7 7 3 8 -1 20 -9 27 -7 8 -11 18 -8 22 3 5 -3 7 -15 5 -11 -2 -19 1
-17 8 1 6 -2 11 -8 12 -5 0 -16 4 -23 9 -8 4 -20 2 -29 -6 -12 -9 -15 -9 -9 0
5 8 0 12 -18 12 -14 0 -28 -4 -31 -10 -3 -5 -12 -10 -18 -10 -7 0 -7 4 2 9 10
7 0 9 -32 8 -26 0 -47 -6 -47 -12 0 -5 -4 -4 -9 4 -5 8 -15 11 -23 8 -8 -3
-21 -1 -29 3 -9 6 -21 3 -33 -8 -11 -9 -17 -12 -14 -7 4 6 -5 16 -19 22 -20
10 -23 10 -13 -2 7 -9 8 -15 0 -20 -5 -3 -10 -1 -10 6 0 6 -8 9 -19 6 -10 -2
-25 -1 -32 4 -8 5 -20 2 -31 -8 -10 -9 -18 -11 -18 -5 0 11 -18 11 -36 -1 -7
-4 -18 1 -25 10 -10 12 -10 14 -1 9 6 -4 12 -3 12 2 0 5 12 8 28 7 15 -1 33 6
40 14 9 10 11 11 6 2 -5 -9 -3 -12 4 -7 7 4 12 15 12 24 0 13 2 14 9 4 6 -10
10 -8 14 8 4 15 10 19 19 14 10 -6 10 -4 -1 9 -9 11 -10 17 -2 17 6 0 11 7 11
16 0 8 4 13 9 10 12 -8 17 11 17 56 -1 33 1 35 19 25 17 -9 18 -8 8 5 -7 8
-11 17 -9 19 3 2 7 24 9 49 3 25 9 44 14 43 5 -1 10 10 11 23 1 15 -2 22 -8
19 -17 -10 -11 7 8 22 10 8 11 11 2 7 -13 -7 -13 -5 -2 8 10 13 10 17 0 21
-10 4 -10 6 1 6 11 1 11 4 0 18 -10 11 -10 14 -1 9 9 -5 12 3 12 29 0 20 4 34
9 30 5 -3 13 0 17 6 4 8 3 9 -4 5 -16 -9 -15 7 0 22 13 13 -2 17 -18 5 -5 -5
-2 -1 8 8 11 11 14 19 7 26 -7 7 -7 13 0 17 6 4 11 12 11 17 0 6 -5 7 -12 3
-7 -5 -8 -3 -4 5 21 33 -5 127 -28 103 -4 -3 -4 1 0 11 4 12 1 17 -10 17 -9 0
-16 5 -16 11 0 6 -8 8 -18 5 -14 -5 -18 -1 -17 12 0 9 4 22 8 29 4 6 4 18 1
27 -5 13 -2 15 12 9 16 -5 17 -4 8 8 -13 16 -10 52 5 57 6 2 7 12 1 28 -6 15
-6 23 -1 19 5 -3 10 12 9 32 0 48 11 105 23 117 5 6 2 18 -9 30 -13 14 -13 18
-2 12 8 -4 7 -1 -3 7 -16 13 -16 15 -2 21 11 4 14 2 9 -7 -5 -9 -3 -8 7 1 12
11 12 14 0 21 -7 5 -11 15 -9 22 3 8 1 23 -5 34 -9 17 -8 18 4 8 12 -10 15 -8
15 8 0 13 -5 18 -15 14 -11 -4 -10 0 4 15 20 22 8 28 -15 8 -8 -7 -7 -4 2 7
19 23 19 25 8 65 -5 17 -5 28 0 25 13 -8 18 18 8 38 -5 9 -6 23 -2 30 6 9 5 9
-7 0 -13 -10 -15 -10 -14 5 0 9 4 23 9 30 4 7 2 12 -4 12 -7 0 -9 7 -6 16 4
10 -1 25 -11 36 -13 14 -13 18 -2 13 10 -4 15 1 15 14 0 12 -5 17 -15 13 -9
-3 -12 -1 -7 6 3 6 2 13 -3 17 -6 3 -8 12 -4 20 3 9 1 21 -4 28 -6 6 -13 21
-17 31 -6 17 -4 17 11 6 10 -8 6 -1 -9 14 -27 26 -37 43 -20 32 4 -2 9 5 9 17
2 15 0 18 -6 8 -6 -9 -11 -5 -19 17 -6 17 -7 34 -4 38 4 4 -1 4 -10 1 -12 -4
-15 -2 -11 9 3 7 0 14 -6 14 -6 0 -8 7 -4 17 5 12 2 15 -10 10 -10 -4 -14 -2
-11 7 3 7 -7 29 -21 50 -14 21 -24 45 -20 54 4 11 2 12 -8 4 -10 -8 -16 -6
-26 10 -10 16 -10 19 1 12 10 -6 10 -4 -1 9 -7 9 -20 17 -27 17 -8 0 -13 6
-11 13 1 6 -6 11 -16 11 -18 -2 -18 -1 0 20 9 11 11 15 3 9 -17 -15 -34 -17
-25 -3 3 6 1 10 -4 10 -6 0 -11 6 -11 14 0 10 -7 13 -21 11 -18 -4 -19 -2 -7
12 9 12 9 15 1 9 -8 -4 -23 3 -37 17 -14 14 -28 22 -32 18 -4 -3 -4 2 -1 11 4
12 1 16 -12 13 -10 -2 -24 5 -31 15 -7 10 -19 16 -27 13 -8 -3 -13 -2 -12 3 4
21 -2 28 -11 14 -8 -13 -10 -12 -10 3 0 10 -4 15 -10 12 -5 -3 -10 -1 -10 5 0
6 -4 9 -9 5 -5 -3 -16 2 -24 10 -9 8 -23 15 -32 15 -10 0 -13 5 -9 13 5 8 2 8
-9 -2 -12 -9 -17 -10 -17 -2 0 7 -4 9 -10 6 -5 -3 -10 2 -10 12 0 15 -2 16
-10 3 -8 -12 -10 -12 -10 -1 0 11 -3 11 -17 0 -9 -8 -14 -9 -10 -3 10 17 -19
37 -43 31 -13 -3 -18 -1 -13 6 4 6 0 8 -10 4 -10 -4 -17 -1 -17 6 0 8 -4 6
-10 -3 -7 -12 -10 -12 -10 -1 0 7 -6 11 -15 7 -8 -3 -15 -1 -15 5 0 6 -4 7
-10 4 -5 -3 -10 -1 -10 5 0 7 -8 9 -20 5 -11 -4 -20 -2 -20 4 0 6 -7 7 -17 4
-12 -5 -14 -3 -8 8 7 11 5 11 -10 -1 -11 -9 -16 -10 -11 -2 4 7 2 12 -8 12 -8
0 -17 -6 -19 -12 -3 -8 -6 -5 -6 6 -1 15 -4 16 -15 7 -9 -7 -17 -8 -20 -2 -3
5 -18 8 -32 6 -20 -2 -24 1 -19 14 5 13 4 14 -6 4 -15 -15 -33 -17 -24 -3 3 6
2 10 -4 10 -5 0 -15 -8 -21 -17 -9 -15 -10 -15 -5 5 7 23 6 23 -18 7 -19 -12
-27 -13 -33 -4 -5 8 -3 9 6 4 9 -6 11 -4 5 5 -6 10 -11 9 -22 -5 -10 -15 -13
-16 -13 -4 0 17 -40 20 -52 4 -5 -6 -8 -5 -8 4 0 10 -3 11 -14 2 -10 -8 -16
-9 -21 -2 -7 13 -55 11 -55 -2 0 -5 -7 -1 -16 7 -17 17 -28 21 -20 7z m-1074
-465 c0 -2 -7 -7 -16 -10 -8 -3 -12 -2 -9 4 6 10 25 14 25 6z m2470 -891 c0
-2 -6 -8 -13 -14 -10 -8 -14 -7 -14 2 0 8 6 14 14 14 7 0 13 -1 13 -2z m-2785
-535 c3 -5 1 -10 -4 -10 -6 0 -11 5 -11 10 0 6 2 10 4 10 3 0 8 -4 11 -10z
m2615 -556 c0 -8 -19 -13 -24 -6 -3 5 1 9 9 9 8 0 15 -2 15 -3z m487 -1179 c0
-8 -4 -12 -9 -9 -5 3 -6 10 -3 15 9 13 12 11 12 -6z m-3387 -83 c0 -4 -10 -13
-22 -21 -23 -14 -23 -14 -4 8 20 22 26 25 26 13z m-375 -821 c3 -5 2 -12 -3
-15 -5 -3 -9 1 -9 9 0 17 3 19 12 6z"/>
<path d="M3631 3124 c0 -11 3 -14 6 -6 3 7 2 16 -1 19 -3 4 -6 -2 -5 -13z"/>
<path d="M3605 2990 c3 -5 8 -10 11 -10 2 0 4 5 4 10 0 6 -5 10 -11 10 -5 0
-7 -4 -4 -10z"/>
<path d="M555 1050 c3 -5 8 -10 11 -10 2 0 4 5 4 10 0 6 -5 10 -11 10 -5 0 -7
-4 -4 -10z"/>
</g>
</svg>
