<?xml version="1.0" standalone="no"?>
<!DOCTYPE svg PUBLIC "-//W3C//DTD SVG 20010904//EN"
 "http://www.w3.org/TR/2001/REC-SVG-20010904/DTD/svg10.dtd">
<svg version="1.0" xmlns="http://www.w3.org/2000/svg"
 width="700.000000pt" height="700.000000pt" viewBox="0 0 700.000000 700.000000"
 preserveAspectRatio="xMidYMid meet">
<metadata>
Created by potrace 1.14, written by Peter Selinger 2001-2017
</metadata>
<g transform="translate(0.000000,700.000000) scale(0.100000,-0.100000)"
fill="#000000" stroke="none">
<path d="M3207 6934 c-2 -2 -27 -4 -56 -5 -41 -2 -51 -5 -46 -17 4 -11 2 -12
-7 -5 -15 12 -64 1 -61 -14 1 -5 -8 -9 -20 -7 -25 4 -93 -27 -90 -42 1 -5 -10
-11 -25 -12 -14 -1 -28 -6 -31 -10 -3 -4 -18 -13 -33 -19 -16 -7 -28 -19 -28
-28 0 -8 -5 -15 -11 -15 -5 0 -7 6 -3 13 5 7 1 7 -10 -2 -10 -8 -15 -23 -13
-33 3 -10 0 -21 -5 -25 -7 -4 -8 -1 -3 8 4 8 -6 -2 -23 -21 -33 -37 -43 -62
-17 -40 13 11 14 10 9 -4 -7 -18 -13 -20 -34 -6 -9 6 -20 5 -29 -3 -12 -10
-13 -9 -6 2 6 11 1 13 -24 9 -21 -3 -31 0 -31 9 0 14 -34 13 -47 -2 -5 -4 -3
-5 4 -1 6 3 14 3 17 -2 2 -4 -4 -9 -15 -9 -11 -1 -19 5 -19 13 0 10 -8 13 -31
9 -23 -4 -29 -2 -23 7 6 10 3 9 -9 -1 -9 -7 -24 -10 -33 -7 -9 4 -23 1 -30 -5
-8 -6 -14 -7 -14 -2 0 5 -9 9 -20 10 -13 1 -18 -2 -14 -10 5 -8 3 -8 -7 1 -7
6 -18 12 -24 12 -5 0 -3 -5 5 -10 13 -9 13 -10 0 -11 -8 0 -26 -2 -40 -5 -14
-2 -44 -6 -67 -10 -42 -6 -55 -18 -30 -27 6 -3 -6 -3 -27 0 -28 5 -37 3 -32
-5 4 -7 1 -12 -9 -12 -20 0 -66 -34 -60 -44 3 -3 2 -4 -1 -1 -25 18 -294 -179
-294 -215 0 -9 -78 -34 -101 -33 -11 1 -19 -2 -19 -8 0 -5 -13 -9 -29 -9 -15
0 -43 -5 -61 -12 -29 -10 -31 -12 -15 -18 17 -6 16 -8 -7 -12 -15 -3 -25 -1
-22 3 8 13 -1 11 -41 -8 -19 -9 -35 -20 -35 -25 0 -4 -6 -8 -13 -8 -16 0 -127
-106 -127 -121 0 -6 5 -7 12 -3 7 4 8 3 4 -5 -4 -6 -12 -8 -18 -5 -7 5 -9 1
-5 -9 4 -10 2 -14 -6 -11 -7 2 -13 -3 -14 -13 -3 -43 -8 -61 -14 -57 -14 8
-19 -29 -7 -45 11 -14 11 -14 -3 -4 -19 15 -39 0 -40 -32 0 -11 -3 -15 -5 -9
-8 19 -46 4 -39 -15 5 -12 3 -13 -6 -4 -13 13 -42 6 -33 -8 3 -5 9 -7 13 -5 4
3 8 -1 8 -9 0 -11 -4 -11 -23 2 -21 13 -24 13 -35 -5 -7 -11 -19 -18 -26 -15
-19 7 -43 -16 -36 -34 5 -13 2 -15 -11 -10 -18 7 -46 -13 -46 -33 0 -6 -4 -9
-9 -6 -5 3 -21 -6 -35 -19 -15 -14 -24 -25 -21 -25 4 0 -7 -14 -25 -31 -37
-38 -63 -86 -56 -105 3 -7 -2 -18 -11 -22 -9 -6 -14 -16 -10 -25 3 -9 -1 -18
-8 -21 -8 -3 -12 -12 -9 -21 4 -8 1 -15 -6 -15 -8 0 -11 -12 -8 -34 2 -21 0
-32 -6 -29 -5 4 -7 -1 -3 -10 3 -10 2 -17 -3 -17 -4 0 -8 -53 -9 -117 0 -75 4
-112 9 -103 6 8 10 10 10 5 0 -6 -5 -16 -12 -23 -9 -9 -9 -18 1 -38 12 -28 7
-59 -15 -85 -7 -8 -16 -33 -19 -55 -3 -25 -13 -47 -30 -61 -14 -12 -25 -31
-25 -42 0 -11 -4 -22 -8 -25 -14 -9 -15 -178 0 -187 7 -4 11 -24 10 -46 -1
-24 1 -33 6 -25 7 11 10 10 16 -3 9 -25 7 -37 -6 -29 -7 4 -8 3 -4 -5 4 -6 12
-8 18 -5 7 5 9 -1 5 -16 -4 -15 2 -38 17 -64 25 -45 39 -89 26 -81 -9 6 -43
-55 -35 -63 3 -3 5 0 5 6 0 7 5 12 12 12 6 0 2 -10 -10 -22 -29 -32 -54 -108
-41 -125 6 -6 13 -31 15 -55 3 -24 7 -49 9 -56 3 -8 0 -12 -7 -9 -8 2 -12 16
-10 35 2 18 -1 32 -5 32 -11 0 -10 -56 0 -66 4 -4 7 -24 7 -44 0 -21 7 -43 15
-50 8 -7 13 -16 10 -20 -7 -11 16 -61 25 -55 4 2 12 -7 19 -22 11 -24 11 -25
-5 -12 -16 13 -16 12 -5 -8 6 -13 17 -23 24 -23 9 0 9 -2 0 -8 -8 -5 -9 -13
-3 -22 9 -13 10 -13 10 0 1 41 21 -26 26 -85 3 -47 14 -86 40 -139 32 -68 49
-89 123 -149 16 -12 19 -22 13 -35 -9 -17 -8 -72 2 -147 4 -34 4 -35 -3 -10
-8 26 -9 24 -10 -23 -1 -50 -3 -55 -57 -104 -30 -29 -62 -68 -71 -88 -31 -72
-32 -318 -3 -432 29 -114 60 -208 91 -283 4 -11 15 -42 24 -70 43 -132 130
-298 188 -359 40 -42 50 -48 58 -36 9 13 10 12 5 -2 -3 -11 6 -30 22 -50 15
-18 21 -29 15 -24 -16 9 -16 1 -2 -25 5 -11 15 -16 21 -13 7 5 9 2 5 -8 -3 -9
2 -26 10 -39 9 -12 11 -19 5 -15 -20 12 -13 -20 8 -39 11 -10 20 -23 20 -29 0
-6 -5 -4 -10 4 -8 12 -10 10 -10 -9 0 -17 4 -22 16 -17 12 5 14 1 8 -17 -3
-12 -3 -19 1 -15 10 9 36 -39 34 -61 -3 -35 2 -51 15 -51 8 0 21 -14 30 -30 8
-17 10 -27 4 -24 -8 5 -9 1 -5 -10 4 -10 7 -20 7 -22 0 -3 5 -2 12 2 6 4 8 3
5 -3 -8 -12 19 -69 44 -96 9 -11 15 -28 12 -40 -4 -18 -3 -19 6 -7 6 8 11 10
11 4 0 -14 61 -117 87 -148 l18 -21 -25 20 -24 20 16 -25 c8 -14 20 -25 26
-25 6 0 14 -4 19 -9 5 -5 3 -6 -4 -2 -8 4 -13 1 -13 -7 0 -8 7 -18 16 -21 10
-4 13 -2 8 7 -5 7 -1 7 10 -2 13 -11 14 -16 4 -23 -10 -7 -9 -11 4 -22 10 -7
15 -15 13 -18 -12 -11 313 -350 327 -342 10 6 38 -20 38 -36 0 -7 7 -10 15 -7
8 4 17 1 21 -5 4 -7 3 -8 -4 -4 -21 13 -12 -6 14 -31 l25 -23 -7 22 c-6 19 1
16 37 -17 24 -22 43 -45 41 -51 -1 -7 15 -22 35 -35 21 -13 41 -28 45 -33 5
-7 8 -6 8 3 0 11 4 10 14 -4 7 -10 22 -20 32 -21 10 -2 20 -8 22 -13 2 -6 14
-11 27 -11 13 0 26 -4 29 -9 3 -4 -7 -6 -22 -4 l-27 4 30 -14 c17 -8 33 -12
38 -10 4 2 22 -5 41 -16 18 -11 36 -18 39 -14 4 3 7 1 7 -5 0 -7 9 -12 20 -12
11 0 20 -6 20 -14 0 -18 35 -27 51 -12 9 8 10 8 4 -3 -6 -10 -4 -13 7 -8 9 3
27 -1 41 -8 14 -7 28 -11 31 -7 3 3 6 0 6 -6 0 -7 12 -12 28 -11 30 1 105 -17
139 -33 12 -6 28 -8 37 -5 8 3 20 -1 27 -10 9 -11 23 -13 50 -9 26 4 40 2 49
-9 14 -17 45 -21 35 -5 -4 6 -11 7 -17 4 -7 -4 -8 -2 -4 4 8 13 36 5 36 -10 0
-6 7 -7 15 -4 8 3 23 9 33 12 13 5 14 4 3 -4 -10 -7 4 -10 49 -10 40 1 66 -4
68 -11 5 -14 67 -14 94 0 15 8 19 8 13 0 -5 -9 29 -12 127 -10 73 0 138 4 143
7 18 12 57 13 50 2 -10 -16 67 -12 89 5 16 12 22 12 35 2 12 -10 13 -9 7 2 -7
10 -3 12 14 6 17 -5 21 -4 15 5 -6 9 -4 11 6 5 7 -5 29 -10 49 -11 19 -1 27 0
18 3 -32 8 -19 19 22 16 25 -1 40 2 41 10 0 7 4 3 9 -8 5 -11 9 -14 9 -7 1 7
5 11 10 8 5 -4 33 0 63 8 29 8 46 15 38 16 -8 1 3 6 25 11 26 6 41 6 43 0 2
-5 10 -7 18 -4 13 5 13 7 2 14 -8 5 7 9 39 9 28 0 54 4 57 9 4 5 -4 7 -16 4
-13 -3 -20 -2 -16 2 5 5 26 8 49 7 22 -1 38 2 35 7 -3 5 1 11 9 15 8 3 15 1
15 -4 0 -6 4 -10 10 -10 5 0 7 6 4 14 -3 7 2 16 11 20 9 3 13 2 10 -4 -3 -6
-1 -10 4 -10 6 0 11 3 11 8 0 11 51 32 78 32 13 0 20 4 17 10 -3 5 3 10 13 10
11 0 22 7 26 15 3 8 13 15 23 15 16 0 16 -2 3 -11 -13 -9 -13 -10 0 -6 8 2 15
9 15 15 0 7 15 21 33 32 19 12 31 16 27 10 -3 -5 -1 -10 4 -10 6 0 11 6 11 13
0 8 10 19 23 25 12 6 38 21 57 33 47 30 26 9 -25 -25 -22 -14 -36 -26 -32 -26
8 0 58 27 95 50 23 16 31 36 10 25 -7 -3 -5 0 6 7 10 7 33 24 50 38 28 22 29
22 12 2 -11 -12 -15 -22 -9 -22 13 0 45 35 38 42 -3 3 5 13 17 24 l23 19 -19
-22 c-11 -13 -16 -23 -12 -23 13 0 76 45 76 55 0 5 -5 4 -12 -3 -7 -7 -16 -12
-21 -12 -5 0 3 10 19 22 15 13 35 23 44 23 8 0 14 5 13 11 -1 7 8 20 20 30
l22 19 -19 -22 c-11 -13 -16 -23 -12 -23 12 0 66 43 66 53 0 5 -7 4 -15 -3 -9
-7 -15 -8 -15 -2 0 11 30 26 44 23 13 -3 96 81 90 91 -3 4 2 5 10 2 9 -3 16
-1 16 5 0 6 18 28 40 48 23 20 39 42 36 48 -2 7 11 28 30 46 19 18 34 29 34
24 0 -5 9 1 21 13 11 12 17 27 14 32 -4 6 4 14 17 19 13 6 20 10 16 10 -5 1 1
10 12 21 12 12 18 25 15 30 -3 5 0 12 6 16 8 5 10 2 5 -7 -5 -8 8 4 28 26 41
45 59 81 50 97 -4 6 -3 8 3 5 13 -8 45 31 37 45 -4 7 -3 8 5 4 7 -5 15 4 22
23 6 17 16 31 21 31 6 0 8 11 6 25 -3 15 -1 25 7 25 6 0 21 17 33 38 16 30 19
41 10 50 -12 12 -10 13 14 16 6 0 13 7 16 15 3 9 0 11 -8 6 -9 -6 -9 -2 0 16
16 31 25 39 17 16 -4 -11 -3 -16 3 -12 6 3 10 13 10 21 0 8 5 14 12 14 6 0 9
3 5 6 -3 4 1 23 9 43 9 20 20 47 25 61 9 24 8 24 -6 6 -8 -11 -15 -15 -15 -8
0 6 12 23 28 37 20 19 24 28 14 34 -9 6 -10 14 -2 32 10 22 10 23 6 2 -2 -13
-1 -23 4 -23 12 0 18 49 6 54 -15 6 27 9 93 6 43 -2 52 1 45 11 -6 11 -5 12 8
2 11 -10 23 -10 47 -2 17 6 31 15 31 19 0 5 9 11 20 15 24 8 94 101 85 115 -3
5 0 7 9 4 10 -4 18 6 27 30 7 20 17 36 22 36 4 0 6 4 2 9 -3 6 1 13 9 18 13 7
136 251 136 269 0 8 33 83 51 116 5 10 9 26 9 36 0 10 3 22 7 26 4 4 9 19 11
33 2 15 8 35 14 46 6 11 13 75 15 141 6 145 -10 224 -62 304 -36 54 -101 108
-142 118 -18 5 -23 13 -23 36 0 16 7 37 16 45 11 11 12 18 4 23 -8 5 -8 11 3
21 18 18 29 69 29 137 0 41 -4 57 -21 71 -11 10 -18 21 -14 24 3 4 1 12 -4 19
-6 7 -13 31 -16 53 -4 27 -3 35 3 25 8 -12 10 -10 10 8 0 13 4 21 9 18 10 -6
29 13 29 29 0 5 6 11 14 13 9 2 8 0 -2 -7 -8 -6 -10 -11 -4 -11 11 0 44 32 44
43 0 4 8 16 17 27 10 11 18 26 19 33 0 6 2 21 3 32 1 17 3 18 11 5 8 -12 10
-9 10 13 0 16 -4 26 -10 22 -5 -3 -10 -2 -10 3 0 6 7 12 15 16 21 8 19 29 -2
22 -17 -6 -17 -5 0 8 15 12 16 18 6 40 -7 14 -15 23 -19 21 -4 -3 -10 7 -13
22 -4 24 -4 26 8 10 7 -9 16 -17 20 -17 10 0 -4 69 -21 102 -21 41 -17 67 15
94 17 14 33 34 36 45 4 10 10 17 15 14 4 -3 10 3 13 13 2 9 8 25 12 35 4 10 3
17 -3 17 -6 0 -12 -6 -15 -12 -2 -7 -2 -2 1 12 3 14 6 35 7 47 1 13 5 26 10
30 4 5 5 3 1 -4 -3 -6 -2 -14 4 -18 5 -3 10 3 10 14 0 10 -6 22 -12 24 -10 4
-10 6 0 6 6 1 12 6 12 12 0 5 -6 7 -12 3 -10 -6 -10 -5 -1 7 13 16 14 61 1 53
-4 -3 -8 6 -8 20 0 13 -6 27 -12 30 -7 3 -4 4 8 1 19 -5 20 -2 16 52 -2 32 -8
59 -12 61 -4 1 -2 19 5 40 9 24 10 39 3 43 -7 4 -6 9 1 13 6 4 8 13 4 19 -4 7
-8 28 -8 47 -1 19 -5 50 -9 68 -7 31 -9 32 -21 15 -13 -17 -14 -16 -8 6 4 14
2 22 -3 18 -5 -3 -10 3 -10 14 0 10 4 19 9 19 4 0 5 5 2 10 -4 6 -11 7 -17 4
-7 -4 -8 -2 -4 4 4 6 -5 18 -21 26 -22 12 -24 15 -9 16 15 0 16 3 6 15 -7 8
-17 12 -23 8 -6 -3 -7 -1 -3 6 4 6 -4 25 -19 43 -14 17 -24 37 -21 44 3 7 0
14 -6 16 -7 3 -9 11 -3 24 4 10 7 29 6 42 -1 12 2 22 8 22 6 0 11 5 11 11 0 6
-6 7 -12 2 -7 -4 -5 5 5 20 11 17 16 40 14 62 -3 26 0 35 10 35 18 0 16 65 -3
93 -7 10 -9 36 -6 62 3 31 1 45 -7 45 -7 0 -10 4 -7 9 4 5 -5 23 -19 39 -14
16 -25 33 -25 38 0 4 -8 17 -17 28 -17 20 -17 20 0 7 25 -19 21 -6 -7 24 -14
15 -29 24 -35 21 -5 -4 -7 3 -4 15 5 16 2 20 -13 17 -12 -2 -18 2 -16 11 4 18
-25 49 -63 68 l-30 16 20 -23 c16 -19 13 -18 -17 5 -37 29 -57 37 -95 37 -13
0 -21 4 -18 9 7 10 -30 31 -39 22 -13 -13 -35 -11 -29 3 4 10 -3 14 -21 14
-14 0 -26 5 -26 10 0 6 -7 10 -15 10 -8 0 -15 4 -15 9 0 5 -5 22 -11 38 -10
26 -12 27 -19 8 -6 -14 -9 -15 -9 -5 -1 9 3 20 8 25 5 6 5 20 0 34 -8 20 -11
22 -26 10 -12 -10 -14 -10 -9 -1 4 7 2 12 -4 12 -6 0 -8 5 -4 11 5 8 9 8 14
-1 5 -8 10 -8 14 -2 3 5 -1 15 -9 22 -8 7 -13 16 -10 20 3 4 -6 19 -19 33 -13
13 -26 32 -29 42 -4 9 -12 13 -18 9 -7 -4 -9 -3 -6 3 8 13 -27 46 -38 36 -4
-5 -5 -3 -2 3 6 11 -26 44 -43 44 -6 0 -10 5 -10 10 0 6 -7 10 -16 10 -9 0
-12 -5 -8 -12 4 -7 3 -8 -5 -4 -6 4 -9 11 -6 16 7 11 -35 35 -53 32 -7 -2 -15
4 -18 13 -4 8 -18 15 -34 15 -16 0 -31 4 -34 9 -3 5 -16 11 -28 14 -13 2 -32
8 -43 12 l-20 8 20 -16 c20 -16 20 -16 -2 -10 -13 3 -23 9 -23 13 0 5 -25 14
-55 21 -30 7 -55 16 -55 22 0 5 -9 7 -20 4 -11 -3 -20 -1 -20 5 0 5 -4 6 -10
3 -5 -3 -7 0 -5 8 6 15 -32 70 -44 63 -4 -3 -8 1 -8 9 0 8 5 11 10 8 6 -4 8 1
4 11 -4 10 -7 21 -7 24 0 4 -5 0 -11 -8 -9 -12 -10 -10 -6 8 3 13 3 21 0 18
-4 -3 -17 10 -31 30 -33 49 -84 95 -99 89 -7 -2 -12 1 -10 8 1 6 -18 22 -43
34 -25 12 -40 22 -35 23 6 0 -5 9 -23 20 -19 12 -42 20 -51 18 -10 -2 -19 2
-21 7 -6 21 -34 33 -53 23 -10 -5 -21 -7 -25 -4 -3 3 1 6 8 6 10 0 11 3 3 11
-14 14 -135 18 -193 6 -25 -5 -50 -17 -57 -26 -7 -9 -12 -11 -13 -4 0 8 -9 9
-29 3 -16 -4 -32 -6 -35 -2 -3 3 -6 0 -6 -7 0 -7 9 -9 26 -5 18 5 25 3 20 -4
-8 -13 -86 -14 -86 -1 0 5 8 6 18 3 9 -3 4 5 -13 20 -37 32 -55 34 -29 4 l19
-23 -22 19 c-13 10 -20 22 -18 26 6 11 -23 33 -75 57 -79 37 -117 44 -227 43
-136 -1 -143 -1 -143 -13 0 -5 -6 -7 -14 -4 -7 3 -39 -10 -70 -29 -32 -19 -54
-29 -50 -22 6 10 4 10 -8 0 -9 -7 -38 -15 -65 -17 -29 -2 -40 -1 -29 4 27 11
6 22 -44 24 -22 1 -40 5 -40 10 0 5 -12 6 -27 3 -20 -5 -24 -4 -13 3 11 8 9
12 -15 21 -17 7 -48 14 -70 17 -22 2 -42 8 -45 12 -5 8 -136 22 -143 15z
m-127 -38 c0 -2 -7 -7 -16 -10 -8 -3 -12 -2 -9 4 6 10 25 14 25 6z m645 -294
c-3 -3 -11 0 -18 7 -9 10 -8 11 6 5 10 -3 15 -9 12 -12z m-1700 -102 c-3 -5
-16 -15 -28 -21 -19 -9 -19 -8 3 10 28 23 34 26 25 11z m3105 -75 c14 -19 14
-19 -2 -6 -10 7 -18 18 -18 24 0 6 1 8 3 6 1 -2 9 -13 17 -24z m60 -76 c0 -5
5 -7 12 -3 7 4 8 3 4 -5 -6 -9 -11 -9 -22 0 -17 14 -18 19 -4 19 6 0 10 -5 10
-11z m54 2 c3 -5 -1 -11 -9 -14 -9 -4 -12 -1 -8 9 6 16 10 17 17 5z m-3754
-135 c0 -2 -8 -10 -17 -17 -16 -13 -17 -12 -4 4 13 16 21 21 21 13z m-220
-302 c0 -8 -19 -13 -24 -6 -3 5 1 9 9 9 8 0 15 -2 15 -3z m4578 -59 c12 -4 22
-11 22 -16 0 -9 -58 9 -65 21 -5 8 3 7 43 -5z m282 -115 c0 -5 -2 -10 -4 -10
-3 0 -8 5 -11 10 -3 6 -1 10 4 10 6 0 11 -4 11 -10z m-5163 -45 c0 -8 -4 -12
-9 -9 -5 3 -6 10 -3 15 9 13 12 11 12 -6z m-57 -38 c0 -2 -10 -12 -22 -23
l-23 -19 19 23 c18 21 26 27 26 19z m-110 -337 c0 -5 -5 -10 -11 -10 -5 0 -7
5 -4 10 3 6 8 10 11 10 2 0 4 -4 4 -10z m1745 -40 c-3 -5 -14 -10 -23 -10 -15
0 -15 2 -2 10 20 13 33 13 25 0z m-65 -14 c0 -2 -9 -6 -20 -9 -11 -3 -18 -1
-14 4 5 9 34 13 34 5z m-50 -16 c0 -5 -7 -7 -15 -4 -8 4 -15 1 -15 -5 0 -6 -4
-11 -10 -11 -5 0 -7 7 -4 15 7 16 44 21 44 5z m-79 -23 c-10 -9 -11 -8 -5 6 3
10 9 15 12 12 3 -3 0 -11 -7 -18z m1253 11 c-3 -4 -11 -5 -19 -1 -21 7 -19 12
4 10 11 0 18 -5 15 -9z m-1280 -14 c3 -8 2 -12 -4 -9 -6 3 -10 10 -10 16 0 14
7 11 14 -7z m-167 0 c-3 -3 -12 -4 -19 -1 -8 3 -5 6 6 6 11 1 17 -2 13 -5z
m91 -1 c-16 -2 -40 -2 -55 0 -16 2 -3 4 27 4 30 0 43 -2 28 -4z m2385 -6 c-5
-9 -82 -6 -88 3 -3 4 18 7 44 6 27 -1 47 -5 44 -9z m-3860 -212 c-3 -9 -8 -14
-10 -11 -3 3 -2 9 2 15 9 16 15 13 8 -4z m812 -115 c-10 -11 -22 -20 -28 -20
-5 0 1 9 14 20 31 25 37 25 14 0z m-865 -44 c0 -2 -7 -9 -15 -16 -13 -11 -14
-10 -9 4 5 14 24 23 24 12z m-20 -66 c0 -5 -2 -10 -4 -10 -3 0 -8 5 -11 10 -3
6 -1 10 4 10 6 0 11 -4 11 -10z m775 -77 c-30 -56 -40 -68 -26 -30 11 28 41
77 47 77 2 0 -8 -21 -21 -47z m4955 0 c0 -5 -5 -15 -10 -23 -8 -12 -10 -11
-10 8 0 12 5 22 10 22 6 0 10 -3 10 -7z m-7 -58 c-3 -9 -8 -14 -10 -11 -3 3
-2 9 2 15 9 16 15 13 8 -4z m-4986 -47 c-3 -8 -6 -5 -6 6 -1 11 2 17 5 13 3
-3 4 -12 1 -19z m4993 -43 c0 -8 -4 -15 -10 -15 -5 0 -7 7 -4 15 4 8 8 15 10
15 2 0 4 -7 4 -15z m-6 -41 c3 -8 2 -12 -4 -9 -6 3 -10 10 -10 16 0 14 7 11
14 -7z m-5660 -48 c36 -61 33 -71 -4 -13 -16 26 -30 50 -30 52 0 13 11 1 34
-39z m639 4 c-3 -11 -9 -20 -15 -20 -5 0 -4 9 2 20 6 11 12 20 14 20 2 0 2 -9
-1 -20z m-18 -50 c3 -5 1 -10 -4 -10 -6 0 -11 5 -11 10 0 6 2 10 4 10 3 0 8
-4 11 -10z m-13 -47 c-3 -16 -7 -22 -10 -15 -4 13 4 42 11 42 2 0 2 -12 -1
-27z m-25 -75 c-3 -8 -6 -5 -6 6 -1 11 2 17 5 13 3 -3 4 -12 1 -19z m0 -40
c-3 -8 -6 -5 -6 6 -1 11 2 17 5 13 3 -3 4 -12 1 -19z m-617 -54 c0 -8 -19 -13
-24 -6 -3 5 1 9 9 9 8 0 15 -2 15 -3z m597 -46 c-3 -8 -6 -5 -6 6 -1 11 2 17
5 13 3 -3 4 -12 1 -19z m5037 -13 c-4 -8 -11 -15 -16 -15 -6 0 -5 6 2 15 7 8
14 15 16 15 2 0 1 -7 -2 -15z m-5036 -30 c-2 -15 -6 -21 -11 -16 -6 6 -7 17
-4 25 9 24 17 19 15 -9z m4989 -37 c-3 -7 -5 -2 -5 12 0 14 2 19 5 13 2 -7 2
-19 0 -25z m-632 -37 c3 -5 2 -12 -3 -15 -5 -3 -9 1 -9 9 0 17 3 19 12 6z
m-4372 -51 c-3 -11 -9 -20 -13 -20 -5 0 -6 9 -3 20 3 11 9 20 13 20 5 0 6 -9
3 -20z m-572 -7 c13 -16 12 -17 -3 -4 -10 7 -18 15 -18 17 0 8 8 3 21 -13z
m556 -78 c0 -8 -4 -12 -9 -9 -5 3 -6 10 -3 15 9 13 12 11 12 -6z m4420 -107
c-3 -7 -5 -2 -5 12 0 14 2 19 5 13 2 -7 2 -19 0 -25z m-4446 -45 c-12 -20 -14
-14 -5 12 4 9 9 14 11 11 3 -2 0 -13 -6 -23z m-434 -25 c-3 -8 -6 -5 -6 6 -1
11 2 17 5 13 3 -3 4 -12 1 -19z m4900 -10 c-3 -8 -6 -5 -6 6 -1 11 2 17 5 13
3 -3 4 -12 1 -19z m-4884 -57 c4 -29 2 -40 -4 -30 -8 13 -14 88 -5 78 2 -2 6
-24 9 -48z m410 -3 c-6 -60 -21 -88 -16 -30 5 47 12 82 18 82 2 0 1 -24 -2
-52z m2667 38 c0 -2 -8 -10 -17 -17 -16 -13 -17 -12 -4 4 13 16 21 21 21 13z
m1817 -18 c-3 -8 -6 -5 -6 6 -1 11 2 17 5 13 3 -3 4 -12 1 -19z m-1737 -98 c0
-5 -5 -10 -11 -10 -5 0 -7 5 -4 10 3 6 8 10 11 10 2 0 4 -4 4 -10z m-2765 -45
c1 -19 -1 -32 -4 -29 -3 3 -6 20 -6 39 0 18 2 31 5 28 3 -2 5 -20 5 -38z
m-310 -27 c7 -5 7 -8 -1 -8 -5 0 -20 13 -32 30 -29 38 -29 51 0 14 12 -16 27
-32 33 -36z m45 -44 c0 -2 -7 -4 -15 -4 -8 0 -15 4 -15 10 0 5 7 7 15 4 8 -4
15 -8 15 -10z m257 -23 c0 -11 -5 -18 -9 -15 -4 3 -5 11 -1 19 7 21 12 19 10
-4z m-213 -17 c3 -8 2 -12 -4 -9 -6 3 -10 10 -10 16 0 14 7 11 14 -7z m213
-51 c-3 -10 -5 -4 -5 12 0 17 2 24 5 18 2 -7 2 -21 0 -30z m5018 -6 c-9 -46
-14 -45 -12 1 1 22 5 38 10 35 4 -2 5 -18 2 -36z m-4158 -3 c-2 -2 -21 -6 -43
-9 -21 -4 -47 -8 -56 -11 -10 -3 -18 0 -18 6 0 6 5 8 10 5 6 -3 10 -2 10 2 0
5 16 8 35 7 19 -1 35 2 35 7 0 4 7 6 15 2 9 -3 14 -7 12 -9z m-1067 -14 c0
-11 -6 -20 -13 -20 -8 0 -14 7 -14 15 0 8 4 12 9 9 4 -3 8 0 8 5 0 6 2 11 5
11 3 0 5 -9 5 -20z m1200 4 c0 -2 -7 -4 -15 -4 -8 0 -15 4 -15 10 0 5 7 7 15
4 8 -4 15 -8 15 -10z m-290 -21 c-19 -9 -61 -29 -92 -44 -32 -15 -58 -24 -58
-19 0 4 12 13 28 19 15 6 38 18 52 25 27 15 79 34 95 34 6 1 -6 -7 -25 -15z
m363 10 c-7 -2 -19 -2 -25 0 -7 3 -2 5 12 5 14 0 19 -2 13 -5z m2207 -3 c0 -5
-10 -10 -22 -9 -22 0 -22 1 -3 9 11 5 21 9 23 9 1 1 2 -3 2 -9z m173 3 c-13
-2 -33 -2 -45 0 -13 2 -3 4 22 4 25 0 35 -2 23 -4z m47 -3 c0 -5 -4 -10 -10
-10 -5 0 -10 5 -10 10 0 6 5 10 10 10 6 0 10 -4 10 -10z m105 -15 c58 -15 106
-33 87 -34 -7 -1 -21 3 -31 8 -10 6 -28 12 -42 14 -89 15 -108 21 -103 29 3 5
13 6 23 3 9 -4 39 -13 66 -20z m-2437 3 c6 -1 12 -5 12 -10 0 -11 -8 -9 -50 8
-33 13 -33 14 -5 9 17 -3 36 -6 43 -7z m2057 3 c-12 -10 -65 -24 -65 -16 0 2
15 9 33 14 43 12 42 12 32 2z m1362 -23 c-3 -8 -6 -5 -6 6 -1 11 2 17 5 13 3
-3 4 -12 1 -19z m-4804 -3 c-3 -9 -8 -14 -10 -11 -3 3 -2 9 2 15 9 16 15 13 8
-4z m1483 -15 c2 0 4 -5 4 -10 0 -6 -18 -1 -40 10 -50 25 -52 35 -4 15 20 -8
38 -15 40 -15z m3741 -12 c-3 -7 -5 -2 -5 12 0 14 2 19 5 13 2 -7 2 -19 0 -25z
m-5000 -10 c-3 -8 -6 -5 -6 6 -1 11 2 17 5 13 3 -3 4 -12 1 -19z m1003 18 c0
-2 -9 -6 -20 -9 -11 -3 -18 -1 -14 4 5 9 34 13 34 5z m2040 -16 c-24 -15 -36
-11 -14 4 10 8 21 12 24 10 2 -3 -2 -9 -10 -14z m-2132 -5 c3 -3 -4 -4 -16 -2
-12 2 -24 6 -28 10 -4 3 4 4 16 2 12 -2 25 -7 28 -10z m163 -8 c-10 -9 -11 -8
-5 6 3 10 9 15 12 12 3 -3 0 -11 -7 -18z m113 -8 c5 -4 -11 -3 -35 3 -24 6
-48 14 -53 19 -5 4 11 3 35 -3 24 -6 48 -14 53 -19z m-336 15 c-4 -3 -12 -7
-20 -8 -7 -1 -31 -10 -52 -19 -22 -10 -42 -15 -45 -12 -8 9 21 25 46 25 12 0
25 5 28 10 3 6 16 10 27 10 12 0 19 -3 16 -6z m2580 0 c-4 -3 -54 -7 -112 -8
-58 -1 -100 1 -94 5 14 9 214 12 206 3z m352 -20 c0 -2 -9 0 -20 6 -11 6 -20
13 -20 16 0 2 9 0 20 -6 11 -6 20 -13 20 -16z m-3274 -16 c-38 -31 -72 -46
-60 -27 3 5 9 7 13 5 4 -3 20 8 35 25 15 16 33 29 39 29 6 0 -6 -14 -27 -32z
m838 6 c4 -11 2 -12 -14 -1 -11 6 -20 15 -20 19 0 12 28 -3 34 -18z m1846 14
c0 -6 -3 -9 -6 -5 -3 3 -28 -3 -55 -13 -27 -11 -49 -17 -49 -13 0 4 -12 -4
-27 -18 l-28 -24 24 27 c14 16 26 26 28 24 2 -2 25 5 51 15 56 22 62 22 62 7z
m324 -6 c3 -5 -1 -9 -9 -9 -8 0 -12 4 -9 9 3 4 7 8 9 8 2 0 6 -4 9 -8z m-2481
-9 c3 -5 -10 -8 -29 -9 -21 0 -30 3 -22 8 16 10 45 10 51 1z m118 -21 c-7 -2
-18 1 -23 6 -8 8 -4 9 13 5 13 -4 18 -8 10 -11z m124 6 c14 -6 25 -15 25 -20
0 -5 -11 -1 -25 8 -13 8 -30 12 -36 8 -8 -4 -9 -3 -5 4 9 15 9 15 41 0z m2335
-4 c0 -2 -9 -4 -20 -4 -11 0 -20 4 -20 9 0 5 9 7 20 4 11 -3 20 -7 20 -9z
m-2675 -4 c-3 -5 -12 -10 -18 -10 -7 0 -6 4 3 10 19 12 23 12 15 0z m255 0 c0
-5 -5 -10 -11 -10 -5 0 -7 5 -4 10 3 6 8 10 11 10 2 0 4 -4 4 -10z m2154 2 c2
-4 -13 -6 -35 -4 -21 2 -39 6 -39 8 0 7 69 4 74 -4z m66 -12 c0 -5 -4 -10 -10
-10 -5 0 -10 5 -10 10 0 6 5 10 10 10 6 0 10 -4 10 -10z m-3639 -23 c-10 -9
-11 -8 -5 6 3 10 9 15 12 12 3 -3 0 -11 -7 -18z m221 -14 c-3 -16 -7 -22 -10
-15 -4 13 4 42 11 42 2 0 2 -12 -1 -27z m868 23 c0 -2 -8 -10 -17 -17 -16 -13
-17 -12 -4 4 13 16 21 21 21 13z m394 -8 c-3 -4 -11 -5 -19 -1 -21 7 -19 12 4
10 11 0 18 -5 15 -9z m92 -3 c18 -13 18 -14 -4 -8 -12 3 -25 9 -28 14 -8 14
10 11 32 -6z m1774 6 c-8 -5 -19 -9 -24 -9 -5 0 -13 -6 -18 -14 -8 -10 -9 -10
-5 2 2 8 9 15 15 15 5 0 14 3 18 8 4 4 12 7 18 7 6 0 4 -5 -4 -9z m400 -48 c0
-3 -15 6 -34 20 -18 15 -37 23 -41 19 -5 -4 -5 -1 -1 6 5 9 16 5 42 -14 19
-15 34 -29 34 -31z m-3070 42 c0 -1 -12 -12 -27 -26 -20 -17 -23 -18 -10 -3 9
11 15 23 12 26 -3 2 2 5 10 5 8 0 15 -1 15 -2z m159 -12 c-25 -30 -69 -72 -69
-65 0 3 17 23 37 44 38 39 56 51 32 21z m675 -4 c-3 -5 -10 -7 -15 -3 -5 3 -7
10 -3 15 3 5 10 7 15 3 5 -3 7 -10 3 -15z m1710 13 c3 -5 -1 -9 -9 -9 -8 0
-12 4 -9 9 3 4 7 8 9 8 2 0 6 -4 9 -8z m-2186 -28 c-12 -12 -17 -13 -23 -3 -5
8 -4 10 4 5 6 -4 14 0 17 9 4 9 9 13 12 10 3 -3 -1 -13 -10 -21z m650 6 c7
-11 11 -20 9 -20 -2 0 -12 9 -22 20 -10 11 -14 20 -9 20 5 0 15 -9 22 -20z
m-68 -5 c10 -12 10 -15 -2 -15 -8 0 -15 7 -15 15 0 8 1 15 2 15 2 0 8 -7 15
-15z m1565 5 c-3 -5 -12 -10 -18 -10 -7 0 -6 4 3 10 19 12 23 12 15 0z m80
-26 c-35 -28 -52 -32 -27 -6 9 11 20 17 25 15 4 -2 10 3 13 12 4 9 9 13 13 10
3 -4 -7 -18 -24 -31z m912 -30 c-2 -2 -17 12 -32 33 l-27 38 32 -33 c18 -18
30 -35 27 -38z m-2620 41 c4 -4 2 -5 -4 -1 -20 11 -15 -2 8 -27 17 -17 21 -18
16 -4 -8 22 -4 22 18 -3 18 -20 18 -21 0 -14 -17 7 -17 4 4 -27 16 -22 6 -15
-28 21 -28 30 -51 58 -51 62 0 9 28 4 37 -7z m2223 -16 c0 -5 -4 -9 -8 -9 -5
0 -9 7 -9 15 0 8 4 12 9 9 4 -3 8 -9 8 -15z m270 -67 c0 -8 -85 71 -89 82 -2
6 17 -9 43 -34 25 -24 46 -46 46 -48z m799 46 c0 -31 -3 -37 -8 -24 -7 18 -3
66 5 66 2 0 4 -19 3 -42z m312 6 c-11 -15 -21 -24 -21 -20 0 10 34 55 39 51 2
-2 -6 -16 -18 -31z m-4944 4 c-3 -8 -6 -5 -6 6 -1 11 2 17 5 13 3 -3 4 -12 1
-19z m784 -1 c-6 -6 -18 -12 -27 -13 -9 -1 -13 1 -9 4 4 4 12 7 18 7 7 1 11 7
9 14 -1 7 2 9 9 6 8 -5 8 -10 0 -18z m649 13 c0 -5 -5 -10 -11 -10 -5 0 -7 5
-4 10 3 6 8 10 11 10 2 0 4 -4 4 -10z m1510 6 c0 -3 -4 -8 -10 -11 -5 -3 -10
-1 -10 4 0 6 5 11 10 11 6 0 10 -2 10 -4z m-2535 -16 c-3 -5 -12 -10 -18 -10
-7 0 -6 4 3 10 19 12 23 12 15 0z m540 -10 c-6 -9 8 -15 29 -11 5 1 4 -5 -4
-13 -7 -9 -18 -16 -24 -16 -6 0 -5 4 3 9 11 7 9 10 -9 16 -14 4 -25 3 -30 -5
-5 -8 -9 -8 -13 4 -4 10 2 16 21 19 15 2 28 5 30 6 2 0 0 -3 -3 -9z m554 -53
c43 -50 51 -70 26 -61 -8 3 -14 9 -13 12 2 18 -3 32 -11 30 -5 -2 -9 1 -10 5
0 4 -6 14 -13 22 -28 31 -38 44 -38 52 0 8 4 4 59 -60z m-980 16 c-40 -47 -42
-49 -34 -33 10 19 47 60 53 60 3 0 -5 -12 -19 -27z m2281 23 c0 -2 -7 -7 -16
-10 -8 -3 -12 -2 -9 4 6 10 25 14 25 6z m-2050 -21 c-7 -8 -17 -15 -23 -15 -6
0 -2 7 9 15 25 19 30 19 14 0z m116 3 c4 -7 4 -10 -1 -6 -10 10 -37 -11 -30
-22 3 -5 1 -11 -4 -14 -13 -9 -7 19 8 38 16 19 18 19 27 4z m2308 -9 c-3 -5
-10 -7 -15 -3 -5 3 -7 10 -3 15 3 5 10 7 15 3 5 -3 7 -10 3 -15z m811 11 c3
-5 2 -10 -4 -10 -5 0 -13 5 -16 10 -3 6 -2 10 4 10 5 0 13 -4 16 -10z m-901
-18 c3 -5 -1 -9 -9 -9 -8 0 -12 4 -9 9 3 4 7 8 9 8 2 0 6 -4 9 -8z m-3194 -33
c15 -28 5 -23 -15 7 -9 15 -12 23 -6 20 6 -4 16 -16 21 -27z m2959 28 c-2 -1
-13 -9 -24 -17 -19 -14 -19 -14 -6 3 7 9 18 17 24 17 6 0 8 -1 6 -3z m1166
-33 c19 -36 27 -74 15 -74 -4 0 -13 19 -19 43 -7 23 -18 48 -23 55 -6 6 -6 12
-1 12 4 0 17 -16 28 -36z m855 23 c0 -2 -16 -18 -35 -37 -19 -19 -35 -31 -35
-26 0 4 15 20 32 37 31 28 38 33 38 26z m-4162 -47 c-5 -17 -14 -27 -20 -24
-7 4 -6 9 1 14 7 4 13 16 14 28 0 11 4 19 8 16 5 -2 3 -18 -3 -34z m2033 17
c-10 -9 -11 -8 -5 6 3 10 9 15 12 12 3 -3 0 -11 -7 -18z m315 7 c-3 -9 -6 -18
-6 -20 0 -2 -5 -4 -11 -4 -8 0 -9 4 0 13 6 8 8 17 4 20 -3 4 -1 7 6 7 8 0 11
-6 7 -16z m812 -1 c24 -24 54 -73 45 -72 -9 0 -76 89 -67 89 2 0 13 -8 22 -17z
m-3923 -21 c-3 -3 -11 0 -18 7 -9 10 -8 11 6 5 10 -3 15 -9 12 -12z m532 0
c-10 -10 -17 -24 -17 -30 0 -6 -5 -14 -12 -18 -6 -4 -9 -3 -7 2 3 5 11 21 19
37 7 15 18 27 23 27 6 0 3 -8 -6 -18z m528 -9 c-3 -16 -10 -32 -15 -37 -9 -9
-8 2 5 42 10 31 19 27 10 -5z m1805 17 c-8 -5 -15 -13 -15 -18 0 -12 -49 -107
-58 -110 -4 -2 -5 -7 -2 -12 3 -4 -3 -14 -13 -21 -15 -13 -16 -12 -3 4 7 9 10
17 7 17 -7 0 48 112 67 138 5 6 15 12 21 12 6 0 4 -5 -4 -10z m-2843 -22 c-3
-8 -6 -5 -6 6 -1 11 2 17 5 13 3 -3 4 -12 1 -19z m853 2 c0 -5 -5 -10 -11 -10
-5 0 -7 5 -4 10 3 6 8 10 11 10 2 0 4 -4 4 -10z m2396 -36 c-9 -8 -11 -9 -6
-2 6 7 11 21 11 33 1 18 2 18 6 1 3 -10 -2 -25 -11 -32z m-291 26 c-3 -5 -8
-18 -10 -27 -2 -10 -7 -29 -13 -42 l-9 -25 -6 23 c-3 14 0 24 9 28 8 3 11 9 8
14 -3 6 0 16 6 24 14 17 24 20 15 5z m118 -5 c-3 -9 -8 -14 -10 -11 -3 3 -2 9
2 15 9 16 15 13 8 -4z m-2362 -75 l-9 -45 -1 37 c-1 20 2 44 6 54 11 29 14 2
4 -46z m902 28 c6 -18 10 -36 9 -40 -1 -5 3 -8 8 -8 6 0 10 -7 10 -16 0 -8 5
-12 10 -9 6 3 10 1 10 -4 0 -6 -6 -11 -13 -11 -15 0 -42 47 -39 66 1 6 -5 17
-13 24 -17 14 -20 30 -4 30 5 0 15 -15 22 -32z m1127 7 c0 -8 -3 -16 -7 -18
-5 -3 -8 5 -8 18 0 13 3 21 8 18 4 -2 7 -10 7 -18z m-1825 -5 c17 -3 19 -10 4
-10 -9 0 -24 7 -35 16 -19 15 -19 15 1 6 11 -6 25 -11 30 -12z m568 -7 c-7 -3
-13 -14 -13 -25 0 -12 -3 -19 -6 -15 -3 3 -3 20 1 37 5 25 10 29 19 20 8 -10
8 -14 -1 -17z m3277 12 c-7 -9 -15 -13 -19 -10 -3 3 1 10 9 15 21 14 24 12 10
-5z m-3111 -40 c0 -5 -4 -3 -9 5 -5 8 -9 22 -9 30 0 16 17 -16 18 -35z m1576
36 c3 -5 2 -12 -3 -15 -5 -3 -9 1 -9 9 0 17 3 19 12 6z m845 -20 c0 -17 -3
-32 -7 -34 -5 -3 -8 10 -8 29 0 19 3 34 8 34 4 0 7 -13 7 -29z m-870 -7 c0 -2
-19 -3 -42 -3 -39 1 -41 2 -13 8 28 7 55 4 55 -5z m-2807 -26 c9 -31 2 -33
-11 -3 -6 14 -8 25 -3 25 5 0 11 -10 14 -22z m48 -11 c-10 -9 -11 -8 -5 6 3
10 9 15 12 12 3 -3 0 -11 -7 -18z m2486 -24 c0 -21 4 -53 8 -72 6 -27 5 -33
-6 -29 -17 6 -22 138 -5 138 1 0 3 -17 3 -37z m1818 27 c3 -5 1 -10 -4 -10 -6
0 -11 5 -11 10 0 6 2 10 4 10 3 0 8 -4 11 -10z m-726 -60 c6 0 15 8 20 18 6 9
11 12 11 6 0 -18 -26 -35 -44 -28 -9 3 -16 16 -15 28 0 21 0 21 9 -1 5 -13 14
-23 19 -23z m-3602 24 c-3 -3 -12 -4 -19 -1 -8 3 -5 6 6 6 11 1 17 -2 13 -5z
m2328 -23 c-9 -8 -36 -10 -30 -2 2 4 11 8 20 8 8 0 13 -3 10 -6z m1995 -121
c-3 -3 -5 -14 -4 -25 0 -11 -2 -29 -6 -40 -4 -11 -6 14 -4 55 6 138 7 147 13
80 3 -36 4 -67 1 -70z m-4753 105 c0 -8 -4 -12 -9 -9 -5 3 -6 10 -3 15 9 13
12 11 12 -6z m1480 -32 c-3 -10 -5 -4 -5 12 0 17 2 24 5 18 2 -7 2 -21 0 -30z
m-738 -28 c0 -5 -4 -3 -9 5 -5 8 -9 22 -9 30 0 16 17 -16 18 -35z m602 2 c-10
-9 -11 -8 -5 6 3 10 9 15 12 12 3 -3 0 -11 -7 -18z m2373 -13 c3 -8 2 -12 -4
-9 -6 3 -10 10 -10 16 0 14 7 11 14 -7z m-754 -15 c0 -6 -4 -7 -10 -4 -5 3
-10 11 -10 16 0 6 5 7 10 4 6 -3 10 -11 10 -16z m-2963 -21 c-3 -8 -6 -5 -6 6
-1 11 2 17 5 13 3 -3 4 -12 1 -19z m3694 -11 c-10 -9 -11 -8 -5 6 3 10 9 15
12 12 3 -3 0 -11 -7 -18z m-710 -31 c8 4 9 3 5 -5 -10 -16 -36 5 -35 28 0 10
3 8 10 -7 5 -14 13 -20 20 -16z m693 -6 c-6 -6 -10 -3 -10 10 0 13 4 16 10 10
7 -7 7 -13 0 -20z m-3677 -32 c-3 -7 -5 -2 -5 12 0 14 2 19 5 13 2 -7 2 -19 0
-25z m3439 -13 c-11 -8 -25 -15 -30 -15 -6 1 0 7 14 15 32 19 40 18 16 0z
m214 -9 c-7 -7 -13 -7 -20 0 -6 6 -3 10 10 10 13 0 16 -4 10 -10z m-265 -6
c-3 -5 -16 -10 -28 -9 -20 1 -20 2 3 9 14 4 26 8 28 9 2 1 0 -3 -3 -9z m-3388
-47 c-3 -10 -5 -2 -5 17 0 19 2 27 5 18 2 -10 2 -26 0 -35z m848 17 l20 -25
-22 19 c-13 11 -23 24 -23 29 0 6 1 8 3 6 1 -2 11 -15 22 -29z m510 12 c-3 -3
-11 0 -18 7 -9 10 -8 11 6 5 10 -3 15 -9 12 -12z m1776 -19 c13 -16 12 -17 -3
-4 -17 13 -22 21 -14 21 2 0 10 -8 17 -17z m489 -9 c0 -8 -19 -13 -24 -6 -3 5
1 9 9 9 8 0 15 -2 15 -3z m-2700 -29 c11 -13 10 -14 -4 -9 -9 3 -16 10 -16 15
0 13 6 11 20 -6z m-923 -57 c-3 -8 -6 -5 -6 6 -1 11 2 17 5 13 3 -3 4 -12 1
-19z m3409 10 c-9 -5 -23 -5 -32 0 -12 6 -7 9 16 9 23 0 28 -3 16 -9z m1321
-60 c-3 -7 -5 -2 -5 12 0 14 2 19 5 13 2 -7 2 -19 0 -25z m0 -38 c-2 -11 -6
-22 -9 -26 -4 -3 -5 2 -3 13 2 10 4 21 4 26 1 4 3 7 6 7 3 0 4 -9 2 -20z m-16
-127 c-4 -28 -6 -32 -9 -15 -3 22 3 52 11 52 1 0 1 -17 -2 -37z m-4698 2 c-7
-21 -12 -19 -10 4 0 11 5 18 9 15 4 -3 5 -11 1 -19z m7 -71 c0 -8 -5 -12 -10
-9 -6 4 -8 11 -5 16 9 14 15 11 15 -7z m4667 -86 c-3 -8 -6 -5 -6 6 -1 11 2
17 5 13 3 -3 4 -12 1 -19z m-4660 -40 c-3 -7 -5 -2 -5 12 0 14 2 19 5 13 2 -7
2 -19 0 -25z m4643 -25 c-11 -17 -11 -17 -6 0 3 10 7 26 7 35 1 15 2 15 6 0 2
-10 -1 -25 -7 -35z m-4628 -33 c2 -22 -1 -39 -6 -37 -10 3 -15 77 -5 77 4 0 9
-18 11 -40z m4615 -55 c-6 -30 -12 -53 -15 -51 -7 7 9 106 17 106 4 0 3 -25
-2 -55z m-23 -117 c-10 -16 -22 -7 -17 13 4 15 8 17 14 8 4 -7 5 -17 3 -21z
m-2724 -168 c0 -5 -5 -10 -11 -10 -5 0 -7 5 -4 10 3 6 8 10 11 10 2 0 4 -4 4
-10z m50 0 c0 -5 -5 -10 -11 -10 -5 0 -7 5 -4 10 3 6 8 10 11 10 2 0 4 -4 4
-10z m155 4 c-47 -7 -113 -8 -108 -1 2 4 32 6 66 6 34 -1 53 -3 42 -5z m153
-1 c-15 -2 -42 -2 -60 0 -18 2 -6 4 27 4 33 0 48 -2 33 -4z m79 1 c-8 -8 -48
-13 -43 -6 2 4 14 8 26 9 12 1 20 0 17 -3z m46 -17 c-5 -8 -8 -7 -11 1 -2 7
-9 9 -14 6 -7 -4 -8 -2 -4 4 4 6 13 9 21 6 8 -4 12 -11 8 -17z m-579 -11 l31
4 -28 -11 c-24 -9 -31 -8 -43 5 -8 9 -9 12 -3 7 7 -6 26 -8 43 -5z m646 10 c0
-3 -4 -8 -10 -11 -5 -3 -10 -1 -10 4 0 6 5 11 10 11 6 0 10 -2 10 -4z m40 -17
c0 -4 -7 -6 -15 -3 -8 4 -15 10 -15 15 0 4 7 6 15 3 8 -4 15 -10 15 -15z
m-744 -11 c4 -6 3 -8 -4 -4 -6 3 -13 2 -17 -4 -3 -5 -19 -10 -35 -10 -15 0
-31 -5 -33 -10 -3 -6 -4 -5 -3 2 1 7 16 14 32 16 16 2 33 8 39 13 12 11 12 11
21 -3z m824 -8 c18 -12 2 -12 -25 0 -13 6 -15 9 -5 9 8 0 22 -4 30 -9z m100
-24 c8 -3 2 -3 -15 0 -16 4 -38 7 -47 8 -10 0 -18 6 -18 13 0 12 8 10 80 -21z
m1841 -13 c-12 -20 -14 -14 -5 12 4 9 9 14 11 11 3 -2 0 -13 -6 -23z m-2901 3
c0 -3 -4 -8 -10 -11 -5 -3 -10 -1 -10 4 0 6 5 11 10 11 6 0 10 -2 10 -4z
m1164 -22 c4 -10 1 -14 -6 -12 -15 5 -23 28 -10 28 5 0 13 -7 16 -16z m-1243
-8 c-11 -13 -51 -29 -51 -20 0 3 51 33 59 34 2 0 -2 -6 -8 -14z m1295 -12 c18
-14 18 -14 -6 -3 -31 14 -36 19 -24 19 6 0 19 -7 30 -16z m105 -80 c2 2 4 -8
5 -22 1 -30 12 -91 19 -103 3 -4 1 -18 -4 -31 -9 -21 -10 -20 -10 12 -2 65
-29 142 -63 179 l-33 36 41 -38 c22 -20 42 -35 45 -33z m-1481 22 c0 -3 -4 -8
-10 -11 -5 -3 -10 -1 -10 4 0 6 5 11 10 11 6 0 10 -2 10 -4z m2985 -54 c-15
-16 -16 -15 -4 12 7 15 15 23 17 16 3 -7 -3 -19 -13 -28z m-3026 -52 c-14 -38
-16 -38 -15 0 1 16 6 30 13 30 9 0 9 -8 2 -30z m2976 -39 c-8 -17 -19 -33 -25
-36 -5 -3 -1 10 11 29 25 43 36 48 14 7z m-75 -125 c0 -2 -8 -10 -17 -17 -16
-13 -17 -12 -4 4 13 16 21 21 21 13z m-2913 -48 c-3 -8 -6 -5 -6 6 -1 11 2 17
5 13 3 -3 4 -12 1 -19z m2893 9 c0 -2 -12 -14 -26 -28 l-27 -24 18 28 c14 22
35 36 35 24z m-1347 -22 c-3 -9 -8 -14 -10 -11 -3 3 -2 9 2 15 9 16 15 13 8
-4z m-2363 -296 c0 -4 -16 9 -35 28 -19 19 -35 38 -35 41 0 3 -6 13 -12 22 -7
9 8 -7 34 -34 26 -28 48 -54 48 -57z m3480 38 c0 -2 -15 -16 -32 -33 l-33 -29
29 33 c28 30 36 37 36 29z m-115 -117 c-3 -5 -12 -10 -18 -10 -7 0 -6 4 3 10
19 12 23 12 15 0z m-3255 -35 c13 -14 21 -25 18 -25 -2 0 -15 11 -28 25 -13
14 -21 25 -18 25 2 0 15 -11 28 -25z m2120 -575 c-8 -5 -19 -10 -25 -10 -5 0
-3 5 5 10 8 5 20 10 25 10 6 0 3 -5 -5 -10z m-753 -46 c-3 -3 -12 -4 -19 -1
-8 3 -5 6 6 6 11 1 17 -2 13 -5z m450 0 c-3 -3 -12 -4 -19 -1 -8 3 -5 6 6 6
11 1 17 -2 13 -5z"/>
<path d="M6310 5425 c0 -5 5 -17 10 -25 5 -8 10 -10 10 -5 0 6 -5 17 -10 25
-5 8 -10 11 -10 5z"/>
<path d="M6316 5273 c-6 -14 -5 -15 5 -6 7 7 10 15 7 18 -3 3 -9 -2 -12 -12z"/>
<path d="M720 4941 c-12 -24 -13 -34 -1 -27 9 6 22 46 15 46 -2 0 -8 -9 -14
-19z"/>
<path d="M6430 4270 c0 -5 5 -10 11 -10 5 0 7 5 4 10 -3 6 -8 10 -11 10 -2 0
-4 -4 -4 -10z"/>
<path d="M1391 1404 c0 -11 3 -14 6 -6 3 7 2 16 -1 19 -3 4 -6 -2 -5 -13z"/>
<path d="M5295 900 c-16 -17 -25 -30 -21 -30 11 0 59 51 53 56 -2 2 -16 -10
-32 -26z"/>
<path d="M4945 570 c-3 -5 -1 -10 4 -10 6 0 11 5 11 10 0 6 -2 10 -4 10 -3 0
-8 -4 -11 -10z"/>
<path d="M2110 482 c0 -10 49 -46 55 -40 1 2 -11 13 -26 26 -16 13 -29 19 -29
14z"/>
<path d="M3188 73 c7 -3 16 -2 19 1 4 3 -2 6 -13 5 -11 0 -14 -3 -6 -6z"/>
</g>
</svg>
